<svg xmlns="http://www.w3.org/2000/svg" xmlns:xlink="http://www.w3.org/1999/xlink" class="SvgSymbol-root" width="25" height="27" viewBox="0 0 25 27">
    <path d="M9.955 18v-4.84l-1.11 1.13-.81-.85 2.1-2.11h1.24V18h-1.42zm4.6-2.78l-1.4 1.41-.57-.55 1.41-1.42-1.41-1.41.57-.56 1.4 1.42 1.41-1.42.56.56-1.41 1.41 1.41 1.42-.56.55-1.41-1.41z" fill-rule="nonzero"></path>
    <path d="M12.5 27C19.404 27 25 21.404 25 14.5S19.404 2 12.5 2 0 7.596 0 14.5 5.596 27 12.5 27zm0-1.5c-6.075 0-11-4.925-11-11s4.925-11 11-11 11 4.925 11 11-4.925 11-11 11z" fill-rule="nonzero"></path>
    </svg>