<svg width="25" height="27" class="SvgSymbol-root" viewBox="0 0 25 27" xmlns="http://www.w3.org/2000/svg">
    <path d="M12.5 27C19.404 27 25 21.404 25 14.5C25 7.596 19.404 2 12.5 2C5.596 2 0 7.596 0 14.5C0 21.404 5.596 27 12.5 27ZM12.5 25.5C6.425 25.5 1.5 20.575 1.5 14.5C1.5 8.425 6.425 3.5 12.5 3.5C18.575 3.5 23.5 8.425 23.5 14.5C23.5 20.575 18.575 25.5 12.5 25.5Z" fill-rule="nonzero"/>
    <path d="M18.57 15.94L19.97 14.53L21.38 15.94L21.94 15.39L20.53 13.97L21.94 12.56L21.38 12L19.97 13.42L18.57 12L18 12.56L19.41 13.97L18 15.39L18.57 15.94Z" fill-rule="nonzero"/>
    <path d="M8.12891 17H7V12.6484L5.65234 13.0664V12.1484L8.00781 11.3047H8.12891V17ZM10.0859 16.4453C10.0859 16.2656 10.1458 16.1198 10.2656 16.0078C10.388 15.8958 10.5404 15.8398 10.7227 15.8398C10.9076 15.8398 11.0599 15.8958 11.1797 16.0078C11.3021 16.1198 11.3633 16.2656 11.3633 16.4453C11.3633 16.6224 11.3034 16.7669 11.1836 16.8789C11.0638 16.9883 10.9102 17.043 10.7227 17.043C10.5378 17.043 10.3854 16.9883 10.2656 16.8789C10.1458 16.7669 10.0859 16.6224 10.0859 16.4453ZM12.4766 14.2031L12.8047 11.3125H15.9922V12.2539H13.7305L13.5898 13.4766C13.8581 13.3333 14.1432 13.2617 14.4453 13.2617C14.987 13.2617 15.4115 13.4297 15.7188 13.7656C16.026 14.1016 16.1797 14.5716 16.1797 15.1758C16.1797 15.543 16.1016 15.8724 15.9453 16.1641C15.7917 16.4531 15.5703 16.6784 15.2812 16.8398C14.9922 16.9987 14.651 17.0781 14.2578 17.0781C13.9141 17.0781 13.5951 17.0091 13.3008 16.8711C13.0065 16.7305 12.7734 16.5339 12.6016 16.2812C12.4323 16.0286 12.3424 15.7409 12.332 15.418H13.4492C13.4727 15.6549 13.5547 15.8398 13.6953 15.9727C13.8385 16.1029 14.0247 16.168 14.2539 16.168C14.5091 16.168 14.7057 16.0768 14.8438 15.8945C14.9818 15.7096 15.0508 15.4492 15.0508 15.1133C15.0508 14.7904 14.9714 14.543 14.8125 14.3711C14.6536 14.1992 14.4284 14.1133 14.1367 14.1133C13.8685 14.1133 13.651 14.1836 13.4844 14.3242L13.375 14.4258L12.4766 14.2031Z" fill-rule="nonzero"/>
    </svg>