<svg width="25" height="27" class="SvgSymbol-root" viewBox="0 0 25 27" xmlns="http://www.w3.org/2000/svg">
    <path d="M12.5 27C19.404 27 25 21.404 25 14.5C25 7.596 19.404 2 12.5 2C5.596 2 0 7.596 0 14.5C0 21.404 5.596 27 12.5 27ZM12.5 25.5C6.425 25.5 1.5 20.575 1.5 14.5C1.5 8.425 6.425 3.5 12.5 3.5C18.575 3.5 23.5 8.425 23.5 14.5C23.5 20.575 18.575 25.5 12.5 25.5Z" fill-rule="nonzero"/>
    <path d="M13.57 15.94L14.97 14.53L16.38 15.94L16.94 15.39L15.53 13.97L16.94 12.56L16.38 12L14.97 13.42L13.57 12L13 12.56L14.41 13.97L13 15.39L13.57 15.94Z" fill-rule="nonzero"/>
    <path d="M12.2852 17H8.38672V16.2266L10.2266 14.2656C10.4792 13.9896 10.6654 13.7487 10.7852 13.543C10.9076 13.3372 10.9688 13.1419 10.9688 12.957C10.9688 12.7044 10.9049 12.5065 10.7773 12.3633C10.6497 12.2174 10.4674 12.1445 10.2305 12.1445C9.97526 12.1445 9.77344 12.2331 9.625 12.4102C9.47917 12.5846 9.40625 12.8151 9.40625 13.1016H8.27344C8.27344 12.7552 8.35547 12.4388 8.51953 12.1523C8.6862 11.8659 8.92057 11.6419 9.22266 11.4805C9.52474 11.3164 9.86719 11.2344 10.25 11.2344C10.8359 11.2344 11.2904 11.375 11.6133 11.6562C11.9388 11.9375 12.1016 12.3346 12.1016 12.8477C12.1016 13.1289 12.0286 13.4154 11.8828 13.707C11.737 13.9987 11.487 14.3385 11.1328 14.7266L9.83984 16.0898H12.2852V17Z" fill-rule="nonzero"/>
    </svg>